<svg id="Capa_1" enable-background="new 0 0 512 512" height="512" viewBox="0 0 512 512" width="512" xmlns="http://www.w3.org/2000/svg"><g><path d="m512 448.266-42.49-63.735-185.709-20 20 147.469h208.199z" fill="#17324d"/><path d="m105.602 364.531 20 147.469h178.199v-147.469z" fill="#284866"/><path d="m303.801 63.734-20 160.399 20 160.398h208.199v-320.797z" fill="#0a1f33"/><path d="m125.602 63.734-20 160.399 20 160.398h178.199v-320.797z" fill="#17324d"/><path d="m303.801 0-20 83.734 140.398-20-45.358-63.734z" fill="#17324d"/><path d="m303.801 0h-75.041l-45.357 63.734 120.398 20z" fill="#284866"/><path d="m303.801 33.734h30v30l-50 20z" fill="#cfdfe6"/><path d="m273.801 33.734h30v50l-30-20z" fill="#fff5f5"/><path d="m283.801 208.199h140.398v-144.465h-120.398z" fill="#284866"/><path d="m183.403 63.734h120.398v144.465h-120.398z" fill="#406080"/><path d="m75.602 364.531 20 147.469h30v-127.469z" fill="#17324d"/><path d="m464.199 209.133h-30.868c-7.463-64.863-62.701-115.398-129.53-115.398l-20 130.398 20 130.398c66.829 0 122.067-50.536 129.53-115.398h30.868z" fill="#17324d"/><path d="m303.801 93.734c-71.902 0-130.398 58.496-130.398 130.398s58.496 130.398 130.398 130.398z" fill="#284866"/><path d="m303.801 123.734-20 100.399 20 100.398c55.36 0 100.398-45.039 100.398-100.398s-45.038-100.399-100.398-100.399z" fill="#284866"/><path d="m203.403 224.133c0 55.36 45.039 100.398 100.398 100.398v-200.797c-55.36 0-100.398 45.039-100.398 100.399z" fill="#406080"/><path d="m303.801 153.734-20 70.398 20 70.398c38.818 0 70.398-31.581 70.398-70.398s-31.58-70.398-70.398-70.398z" fill="#0a1f33"/><path d="m233.403 224.133c0 38.818 31.581 70.398 70.398 70.398v-140.797c-38.818 0-70.398 31.581-70.398 70.399z" fill="#17324d"/><path d="m303.801 194.133-20 30 20 30c16.569 0 30-13.431 30-30s-13.431-30-30-30z" fill="#cfdfe6"/><path d="m273.801 224.133c0 16.569 13.431 30 30 30v-60c-16.569 0-30 13.431-30 30z" fill="#fff5f5"/><path d="m125.602 384.531v-320.797h-30l-20 160.399 20 160.398z" fill="#0a1f33"/><path d="m0 448.266v63.734h95.602v-63.734l-47.801-20z" fill="#406080"/><path d="m95.602 364.531-95.602 20v63.735h95.602z" fill="#284866"/><path d="m0 63.734h95.602v320.797h-95.602z" fill="#17324d"/></g></svg>