<svg id="Capa_1" enable-background="new 0 0 512 512" height="512" viewBox="0 0 512 512" width="512" xmlns="http://www.w3.org/2000/svg"><g><path d="m258.478 287.867v-31.867l-110.644-20v71.867z" fill="#a3c6cc"/><path d="m77.189 287.867 90.645 20v-71.867l-90.645 20z" fill="#cfdfe6"/><path d="m167.834 287.867-20 51.867 110.644-20v-31.867z" fill="#17324d"/><path d="m77.189 287.867v31.867l90.645 20v-51.867z" fill="#284866"/><path d="m167.834 0-20 83.734 155.967-20v-63.734z" fill="#0a1f33"/><path d="m167.834 0h-135.967v63.734l135.967 20z" fill="#17324d"/><path d="m147.834 115.602 155.967-20v-31.868h-135.967z" fill="#17324d"/><path d="m167.834 63.734h-135.967v31.868l135.967 20z" fill="#284866"/><path d="m147.834 147.469 155.967-20v-31.867h-135.967z" fill="#a3c6cc"/><path d="m31.867 95.602v31.867l135.967 20v-51.867z" fill="#cfdfe6"/><path d="m77.189 319.734h-77.189v192.266h109.057l20-128.531z" fill="#284866"/><path d="m258.478 319.734-51.867 63.735 20 128.531h285.389v-192.266z" fill="#17324d"/><circle cx="352.133" cy="415.867" fill="#a3c6cc" r="47.398"/><circle cx="352.133" cy="415.867" fill="#cfdfe6" r="17.398"/><path d="m432.332 400.867h30v30h-30z" fill="#f66"/><path d="m147.834 403.469 78.777-20 31.867-63.735h-90.644z" fill="#0a1f33"/><path d="m167.834 319.734h-90.645l31.868 63.735 58.777 20z" fill="#17324d"/><path d="m303.801 127.469h-45.322l-20 64.265 20 64.266h45.322z" fill="#0a1f33"/><path d="m213.156 127.469-20 64.265 20 64.266h45.323v-128.531z" fill="#17324d"/><path d="m167.834 127.469-20 64.265 20 64.266h45.322v-128.531z" fill="#0a1f33"/><path d="m122.512 127.469-20 64.265 20 64.266h45.322v-128.531z" fill="#17324d"/><path d="m77.19 127.469-20 64.265 20 64.266h45.322v-128.531z" fill="#284866"/><path d="m31.867 127.469h45.322v128.531h-45.322z" fill="#17324d"/><path d="m226.611 512v-128.531h-58.777l-20 64.265 20 64.266z" fill="#284866"/><path d="m109.057 383.469h58.777v128.531h-58.777z" fill="#406080"/></g></svg>