<svg id="Capa_1" enable-background="new 0 0 512 512" height="512" viewBox="0 0 512 512" width="512" xmlns="http://www.w3.org/2000/svg"><g><path d="m320.266 447.332h191.734v-30l-211.734-20z" fill="#17324d"/><path d="m0 417.332v30h320.266v-50z" fill="#284866"/><path d="m512 94.668-115.602 20 20-50h95.602z" fill="#fff5f5"/><path d="m512 94.668h-95.602l-20 81.867 115.602-20z" fill="#cfdfe6"/><path d="m196 64.668h30v47.801h-30z" fill="#284866"/><path d="m136 64.668h30v47.801h-30z" fill="#284866"/><path d="m320.266 64.668-20 111.867 116.132-20v-91.867z" fill="#a3c6cc"/><path d="m320.266 64.668h-64.266v31.867h-256v60l320.266 20z" fill="#cfdfe6"/><path d="m320.266 417.332h191.734v-260.797h-191.734l-20 130.399z" fill="#0a1f33"/><path d="m320.266 156.535h-154.266l-15 10-15-10h-40.398l-20 130.399 20 130.398h224.664z" fill="#17324d"/><path d="m65.602 156.535-20 130.399 20 130.398h30v-260.797z" fill="#0a1f33"/><path d="m0 156.535h65.602v260.797h-65.602z" fill="#17324d"/><path d="m136 156.535h30v30h-30z" fill="#fff5f5"/><path d="m320.266 186.535-20 100.398 20 100.398c55.36 0 100.398-45.039 100.398-100.398s-45.039-100.398-100.398-100.398z" fill="#a3c6cc"/><path d="m219.867 286.934c0 55.36 45.039 100.398 100.398 100.398v-200.797c-55.359 0-100.398 45.039-100.398 100.399z" fill="#cfdfe6"/><path d="m320.266 216.535-20 70.398 20 70.398c38.818 0 70.398-31.581 70.398-70.398s-31.581-70.398-70.398-70.398z" fill="#0a1f33"/><path d="m249.867 286.934c0 38.818 31.581 70.398 70.398 70.398v-140.797c-38.817 0-70.398 31.581-70.398 70.399z" fill="#17324d"/><path d="m320.266 256.934-20 30 20 30c16.569 0 30-13.431 30-30s-13.432-30-30-30z" fill="#17324d"/><path d="m290.266 286.934c0 16.569 13.431 30 30 30v-60c-16.569 0-30 13.431-30 30z" fill="#284866"/></g></svg>