<svg id="Capa_1" enable-background="new 0 0 512 512" height="512" viewBox="0 0 512 512" width="512" xmlns="http://www.w3.org/2000/svg"><g><path d="m427.021 448.266-77.007-20 20 83.734h57.007z" fill="#0a1f33"/><path d="m293.007 428.266 20 83.734h57.007v-63.734z" fill="#17324d"/><path d="m236 428.266 20 83.734h57.007v-63.734z" fill="#0a1f33"/><path d="m178.993 428.266 20 83.734h57.007v-63.734z" fill="#17324d"/><path d="m121.986 428.266 20 83.734h57.007v-63.734z" fill="#284866"/><path d="m84.979 448.266v63.734h57.007v-83.734z" fill="#17324d"/><path d="m427.021 448.266v-32.399l-191.021-20 20 52.399z" fill="#a3c6cc"/><path d="m84.979 448.266h171.021v-52.399l-171.021 20z" fill="#cfdfe6"/><path d="m427.021 415.867v-32.398l-191.021-20 20 52.398z" fill="#17324d"/><path d="m84.979 415.867h171.021v-52.398l-171.021 20z" fill="#284866"/><path d="m427.021 224.133-191.021-20v103.734l191.021-20z" fill="#17324d"/><path d="m84.979 224.133v63.734l171.021 20v-103.734z" fill="#284866"/><path d="m256 0-20 180.398 228.929-20 15.204-160.398z" fill="#0a1f33"/><path d="m256 0h-224.133l15.204 160.398 208.929 20z" fill="#17324d"/><path d="m236 210.398 226.086-20 2.843-30h-208.929z" fill="#17324d"/><path d="m256 160.398h-208.929l2.843 30 206.086 20z" fill="#284866"/><path d="m256 224.133h202.888l3.198-33.735h-206.086l-10 16.868z" fill="#0a1f33"/><path d="m49.914 190.398 3.198 33.735h202.888v-33.735z" fill="#17324d"/><path d="m457.021 383.469v-95.602h-201.021l-20 47.801 20 47.801z" fill="#0a1f33"/><path d="m54.979 287.867h201.021v95.602h-201.021z" fill="#17324d"/></g></svg>