<svg id="Capa_1" enable-background="new 0 0 512 512" height="512" viewBox="0 0 512 512" width="512" xmlns="http://www.w3.org/2000/svg"><g><path d="m448.266 320.797v-182.706l-212.266-20v222.706z" fill="#0a1f33"/><path d="m63.734 320.797 192.266 20v-222.706l-192.266 20z" fill="#17324d"/><path d="m448.266 320.797h-192.266l-20 51.867 212.266-20z" fill="#a3c6cc"/><path d="m448.266 0h-192.266l-20 94.357 212.266-20z" fill="#0a1f33"/><path d="m63.734 0v74.357l192.266 20v-94.357z" fill="#17324d"/><path d="m478.266 74.357h-222.266l-20 31.867 20 31.867h222.266z" fill="#17324d"/><path d="m33.734 74.357h222.266v63.734h-222.266z" fill="#284866"/><path d="m400.465 216.826v-30h-144.465l-10 15 10 15z" fill="#cfdfe6"/><path d="m111.535 186.826h144.465v30h-144.465z" fill="#fff5f5"/><path d="m256 320.797h-192.266v31.867l192.266 20z" fill="#cfdfe6"/><path d="m256 352.664-20 51.867 212.266-20v-31.867z" fill="#cfdfe6"/><path d="m63.734 352.664v31.867l192.266 20v-51.867z" fill="#fff5f5"/><path d="m384.177 384.531-27.082 63.735 12.919 63.734h57.007l21.245-127.469z" fill="#0a1f33"/><path d="m320.089 384.531-23.541 63.735 16.459 63.734h57.007l14.163-127.469z" fill="#17324d"/><path d="m256 384.531-20 63.735 20 63.734h57.007l7.082-127.469z" fill="#0a1f33"/><path d="m191.911 384.531-16.459 63.735 23.541 63.734h57.007v-127.469z" fill="#17324d"/><path d="m127.823 384.531-12.918 63.735 27.081 63.734h57.007l-7.082-127.469z" fill="#284866"/><path d="m63.734 384.531 21.245 127.469h57.007l-14.163-127.469z" fill="#17324d"/></g></svg>