<svg id="Capa_1" enable-background="new 0 0 512 512" height="512" viewBox="0 0 512 512" width="512" xmlns="http://www.w3.org/2000/svg"><g><path d="m352.133 512v-63.734l-116.133-20 20 83.734z" fill="#17324d"/><path d="m159.867 512h96.133v-83.734l-96.133 20z" fill="#284866"/><path d="m352.133 191.203-116.133-20 20 277.063h96.133z" fill="#0a1f33"/><path d="m159.867 191.203v257.063h96.133v-277.063z" fill="#17324d"/><path d="m387.541 127.469-151.541-20 20 83.734h128z" fill="#17324d"/><path d="m124.459 127.469 3.541 63.734h128v-83.734z" fill="#284866"/><path d="m394.622 0h-138.622l-20 63.734 20 63.735h131.541z" fill="#0a1f33"/><path d="m117.378 0 7.081 127.469h131.541v-127.469z" fill="#17324d"/><path d="m382.133 269.938v-30h-126.133l-10 15 10 15z" fill="#17324d"/><path d="m129.867 239.938h126.133v30h-126.133z" fill="#284866"/><path d="m304.332 333.672v-30h-48.332l-10 15 10 15z" fill="#cfdfe6"/><path d="m207.668 303.672h48.332v30h-48.332z" fill="#fff5f5"/></g></svg>