<svg id="Capa_1" enable-background="new 0 0 512 512" height="512" viewBox="0 0 512 512" width="512" xmlns="http://www.w3.org/2000/svg"><g><path d="m256 512h202.888l21.245-74.357-244.133-20z" fill="#17324d"/><path d="m31.867 437.643 21.245 74.357h202.888v-94.357z" fill="#284866"/><path d="m236 266.805 20 170.838h224.133v-150.838z" fill="#284866"/><path d="m256 266.805-224.133 20v150.838h224.133z" fill="#406080"/><path d="m400.465 335.54h30v30h-30z" fill="#cfdfe6"/><path d="m480.133 0h-224.133l-20 83.734 244.133-20z" fill="#284866"/><path d="m31.867 0v63.734l224.133 20v-83.734z" fill="#406080"/><path d="m512 63.734h-64l-20 111.536 20 111.535h64z" fill="#17324d"/><path d="m384 63.734-20 111.536 20 111.535h64v-223.071z" fill="#0a1f33"/><path d="m320 63.734-20 111.536 20 111.535h64v-223.071z" fill="#17324d"/><path d="m256 63.734-20 111.536 20 111.535h64v-223.071z" fill="#0a1f33"/><path d="m192 63.734-20 111.536 20 111.535h64v-223.071z" fill="#17324d"/><path d="m128 63.734-20 111.536 20 111.535h64v-223.071z" fill="#284866"/><path d="m64 63.734-20 111.536 20 111.535h64v-223.071z" fill="#17324d"/><path d="m0 63.734h64v223.071h-64z" fill="#284866"/><path d="m335.934 365.54h-79.934l-10-15 10-15h79.934z" fill="#f93"/><path d="m176.066 335.54h79.934v30h-79.934z" fill="#ffc34d"/></g></svg>