<svg id="Capa_1" enable-background="new 0 0 512 512" height="512" viewBox="0 0 512 512" width="512" xmlns="http://www.w3.org/2000/svg"><g><path d="m353.976 54.447h-117.976l20 403.106h97.976c74.623-36.422 126.157-113.079 126.157-201.553s-51.534-165.131-126.157-201.553z" fill="#0a1f33"/><path d="m158.024 54.447c-74.623 36.422-126.157 113.079-126.157 201.553s51.534 165.131 126.156 201.553h97.977v-403.106z" fill="#17324d"/><path d="m419.755 151.852c-18.17-28.449-43.306-51.642-72.971-67.405h-90.784l-20 171.553 20 171.553h90.784c29.666-15.763 54.801-38.956 72.971-67.405 19.874-31.116 30.378-67.129 30.378-104.148s-10.505-73.032-30.378-104.148z" fill="#17324d"/><path d="m165.216 84.447c-29.666 15.763-54.801 38.956-72.971 67.405-19.873 31.116-30.378 67.129-30.378 104.148s10.504 73.032 30.378 104.148c18.17 28.449 43.306 51.642 72.971 67.405h90.784v-343.106z" fill="#284866"/><path d="m350.274 86.042 7.611-64.945c-31.225-13.562-65.672-21.097-101.885-21.097l-20 106.042z" fill="#17324d"/><path d="m256 0c-36.213 0-70.66 7.535-101.885 21.097l7.611 64.945 94.274 20z" fill="#284866"/><path d="m236 405.959 20 106.041c36.213 0 70.66-7.535 101.885-21.097l-7.611-64.945z" fill="#17324d"/><path d="m350.274 86.042h-94.274l-20 31.867 20 31.867h86.805z" fill="#0a1f33"/><path d="m161.726 86.042 7.469 63.734h86.805v-63.734z" fill="#17324d"/><path d="m161.726 425.959-7.611 64.945c31.225 13.561 65.672 21.096 101.885 21.096v-106.041z" fill="#284866"/><path d="m350.274 425.959-7.469-63.735h-86.805l-20 31.867 20 31.868z" fill="#0a1f33"/><path d="m256 362.224h-86.805l-7.469 63.735h94.274z" fill="#17324d"/><path d="m342.805 241h-86.805l-10 15 10 15h86.805z" fill="#cfdfe6"/><path d="m169.195 241h86.805v30h-86.805z" fill="#fff5f5"/></g></svg>