<svg id="Capa_1" enable-background="new 0 0 512 512" height="512" viewBox="0 0 512 512" width="512" xmlns="http://www.w3.org/2000/svg"><g><path d="m437.02 74.98c-48.353-48.351-112.64-74.98-181.02-74.98l-20 256 20 256c68.38 0 132.667-26.629 181.02-74.98 48.351-48.353 74.98-112.64 74.98-181.02s-26.629-132.667-74.98-181.02z" fill="#17324d"/><path d="m74.98 74.98c-48.351 48.353-74.98 112.64-74.98 181.02s26.629 132.667 74.98 181.02c48.353 48.351 112.64 74.98 181.02 74.98v-512c-68.38 0-132.667 26.629-181.02 74.98z" fill="#284866"/><path d="m415.806 96.194c-42.686-42.686-99.439-66.194-159.806-66.194l-20 226 20 226c60.367 0 117.12-23.508 159.806-66.194s66.194-99.439 66.194-159.806-23.508-117.12-66.194-159.806z" fill="#0a1f33"/><path d="m96.194 96.194c-42.686 42.686-66.194 99.439-66.194 159.806s23.508 117.12 66.194 159.806 99.439 66.194 159.806 66.194v-452c-60.367 0-117.12 23.508-159.806 66.194z" fill="#17324d"/><path d="m256 60-20 196 20 196c108.075 0 196-87.925 196-196s-87.925-196-196-196z" fill="#17324d"/><path d="m60 256c0 108.075 87.925 196 196 196v-392c-108.075 0-196 87.925-196 196z" fill="#284866"/><path d="m256 90-20 166 20 166c91.533 0 166-74.467 166-166s-74.467-166-166-166z" fill="#0a1f33"/><path d="m90 256c0 91.533 74.467 166 166 166v-332c-91.533 0-166 74.467-166 166z" fill="#17324d"/><path d="m352.167 159.833c-26.513-26.513-61.34-39.77-96.167-39.77l-10 14.937 10 15.049c27.144 0 54.289 10.332 74.954 30.997z" fill="#ffc34d"/><path d="m322.719 271v-30h-66.719l-10 15 10 15z" fill="#cfdfe6"/><path d="m159.833 159.833 21.213 21.213c20.665-20.665 47.809-30.997 74.954-30.997v-29.986c-34.827.001-69.653 13.257-96.167 39.77z" fill="#ffe666"/><path d="m189.281 241h66.719v30h-66.719z" fill="#fff5f5"/></g></svg>