<svg id="Capa_1" enable-background="new 0 0 512 512" height="512" viewBox="0 0 512 512" width="512" xmlns="http://www.w3.org/2000/svg"><g><path d="m256 0h118.843v63.734h-118.843z" fill="#a3c6cc"/><path d="m256 31.867-20 460.133 168.843 20h48.734v-480.133z" fill="#0a1f33"/><path d="m58.423 31.867v480.133h48.735l148.842-20v-460.133z" fill="#17324d"/><path d="m256 112.469-20 379.531 138.843 20h30v-399.531z" fill="#17324d"/><path d="m107.158 112.469v399.531h30l118.842-20v-379.531z" fill="#284866"/><path d="m256 512h118.843v-63.734l-138.843-20z" fill="#284866"/><path d="m137.158 448.266v63.734h118.842v-83.734z" fill="#406080"/><path d="m256 142.469-20 152.898 20 152.899h118.843v-305.797z" fill="#0a1f33"/><path d="m137.158 142.469h118.843v305.797h-118.843z" fill="#17324d"/><path d="m311.107 175.27h30v128.531h-30z" fill="#f93"/></g></svg>