<svg id="Capa_1" enable-background="new 0 0 512 512" height="512" viewBox="0 0 512 512" width="512" xmlns="http://www.w3.org/2000/svg"><g><path d="m256 0-20 468.266 228.199-20v-48.735l-20-121.416 20-100.849v-177.266z" fill="#0a1f33"/><path d="m47.801 0v448.266l208.199 20v-468.266z" fill="#17324d"/><path d="m256 177.266-20 111.132 20 111.133h208.199v-30l-20-81.133 20-81.132v-30z" fill="#17324d"/><path d="m128.402 177.266h127.598v222.266h-127.598z" fill="#284866"/><rect height="30" width="0" x="464.199" y="369.531"/><rect height="30" width="0" x="464.199" y="177.266"/><path d="m374.199 117.266h30v30h-30z" fill="#29cc95"/><path d="m464.199 207.266h-63.734l-20 81.132 20 81.133h63.734z" fill="#284866"/><path d="m400.465 207.266h-144.465l-20 81.132 20 81.133h144.465z" fill="#0a1f33"/><path d="m207.137 207.266-20 81.132 20 81.133h48.863v-162.265z" fill="#17324d"/><path d="m207.137 207.266h-48.735v40.566l24.368 20 24.367-20z" fill="#f93"/><path d="m207.137 247.832h-48.735v40.566l24.368 20 24.367-20z" fill="#ffc34d"/><path d="m158.402 288.398v40.567l24.368 20 24.367-20v-40.567z" fill="#f93"/><path d="m158.402 328.965h48.735v40.567h-48.735z" fill="#ffc34d"/><path d="m464.199 448.266h-208.199l-20 31.867 20 31.867h208.199z" fill="#17324d"/><path d="m47.801 448.266h208.199v63.734h-208.199z" fill="#284866"/></g></svg>