<svg id="Capa_1" enable-background="new 0 0 512 512" height="512" viewBox="0 0 512 512" width="512" xmlns="http://www.w3.org/2000/svg"><g><path d="m241 0h30v143.149h-30z" fill="#cfdfe6"/><path d="m415.053 128.149h-159.053l-20 255.547 20 128.304h159.053v-48.622l-20-79.682 20-79.682z" fill="#0a1f33"/><path d="m96.947 128.149h159.053v383.851h-159.053z" fill="#17324d"/><path d="m325.053 244.014h30v30h-30z" fill="#29cc95"/><path d="m415.053 304.014h-159.053l-20 79.682 20 79.682h159.053v-30l-20-49.682 20-49.682z" fill="#17324d"/><path d="m145.568 304.014h110.432v159.364h-110.432z" fill="#284866"/><path d="m415.053 334.014h-159.053l-20 49.682 20 49.682h159.053z" fill="#0a1f33"/><path d="m224.19 334.014-20 49.682 20 49.682h31.81v-99.364z" fill="#17324d"/><path d="m175.568 334.014h48.622v99.364h-48.622z" fill="#ffe666"/></g></svg>