<svg id="Capa_1" enable-background="new 0 0 512 512" height="512" viewBox="0 0 512 512" width="512" xmlns="http://www.w3.org/2000/svg"><g><path d="m482 0h-226l-20 256 20 256h226z" fill="#17324d"/><path d="m30 0h226v512h-226z" fill="#284866"/><path d="m452 30h-196l-20 225 20 227h196z" fill="#0a1f33"/><path d="m60 30h196v452h-196z" fill="#17324d"/><path d="m90 180h136v272h-136z" fill="#284866"/><path d="m286 180h136v272h-136z" fill="#17324d"/><path d="m150.5 60h30v60h-30z" fill="#fff5f5"/><path d="m331.5 60h30v60h-30z" fill="#cfdfe6"/><path d="m316 422h76v-212h-76v30l10 15-10 15v30l10 15-10 15z" fill="#0a1f33"/><path d="m120 422h76v-30l-10-15 10-15v-30l-10-15 10-15v-92h-76z" fill="#0a1f33"/><path d="m158 302h38v30h-38z" fill="#ffe666"/><path d="m158 362h38v30h-38z" fill="#ffe666"/><g fill="#ffc34d"><path d="m316 240h38v30h-38z"/><path d="m316 300h38v30h-38z"/></g></g></svg>