<svg id="Capa_1" enable-background="new 0 0 512 512" height="512" viewBox="0 0 512 512" width="512" xmlns="http://www.w3.org/2000/svg"><g><path d="m361 345h30v167h-30z" fill="#284866"/><path d="m151 415h30v97h-30z" fill="#284866"/><path d="m421 285h-65l20 75h45z" fill="#0a1f33"/><path d="m331 285h45v75h-45z" fill="#17324d"/><path d="m211 355h-65l20 75h45z" fill="#0a1f33"/><path d="m121 355h45v75h-45z" fill="#17324d"/><path d="m166 0-20 140 125-20v-120z" fill="#a3c6cc"/><path d="m166 0h-105v120l105 20z" fill="#cfdfe6"/><path d="m241 30h-75l-20 110 95-20z" fill="#cfdfe6"/><path d="m91 30v90l75 20v-110z" fill="#fff5f5"/><path d="m301 0h75v120h-75z" fill="#cfdfe6"/><path d="m376 0h75v120h-75z" fill="#a3c6cc"/><path d="m421 30h-45l-20 110 65-20z" fill="#cfdfe6"/><path d="m331 30v90l45 20v-110z" fill="#fff5f5"/><path d="m121 60h30v30h-30z" fill="#a3c6cc"/><path d="m181 60h30v30h-30z" fill="#7da1b3"/><path d="m361 60h30v30h-30z" fill="#7da1b3"/><path d="m356 170 95-20v-30h-75z" fill="#0a1f33"/><path d="m301 120v30l75 20v-50z" fill="#17324d"/><path d="m451 150h-75l-20 75 20 75h75z" fill="#17324d"/><path d="m301 150h75v150h-75z" fill="#284866"/><path d="m146 170 125-20v-30h-105z" fill="#0a1f33"/><path d="m61 120v30l105 20v-50z" fill="#17324d"/><path d="m166 150-20 110 20 110h75v-15c0-33.047 25.386-59.169 25.606-59.394l4.394-4.393v-141.213z" fill="#17324d"/><path d="m61 150v141.213l4.394 4.393c.255.257 25.606 26.526 25.606 59.394v15h75v-220z" fill="#284866"/></g></svg>