<svg id="Capa_1" enable-background="new 0 0 512 512" height="512" viewBox="0 0 512 512" width="512" xmlns="http://www.w3.org/2000/svg"><g><path d="m464.199 84.979-84.979-84.979h-107.286l-20 288.93 20 223.07h192.265v-288.929l-20-31.868 20-31.867z" fill="#0a1f33"/><path d="m47.801 0v112.469h31.867v110.602h-31.867v48.734l10 15-10 15v210.195h224.133v-512z" fill="#17324d"/><path d="m47.801 271.805h31.867v30h-31.867z" fill="#cfdfe6"/><path d="m395.465 159.336h68.734v63.734h-68.734z" fill="#17324d"/><path d="m415.465 112.469h-143.531l-20 176.461 20 174.336h143.531z" fill="#cfdfe6"/><path d="m128.402 112.469h143.531v350.797h-143.531z" fill="#fff5f5"/><path d="m385.465 384.373v-241.904h-113.531l-20 246.129c29.526 7.32 79.073-5.364 133.531-4.225z" fill="#e62e6b"/><path d="m271.934 142.469h-113.532v210.353c54.457 1.139 84.005 28.455 113.531 35.775v-246.128z" fill="#f66"/><path d="m191.203 273.93h80.73v30h-80.73z" fill="#fff5f5"/><path d="m271.934 273.93h80.73v30h-80.73z" fill="#cfdfe6"/><path d="m271.934 368.597-20 32.334 20 32.334h113.531v-48.893c-54.458-1.138-84.005-8.454-113.531-15.775z" fill="#f66"/><path d="m158.402 352.822v80.444h113.531v-64.668c-29.526-7.321-59.073-14.637-113.531-15.776z" fill="#f93"/></g></svg>