<svg id="Capa_1" enable-background="new 0 0 512 512" height="512" viewBox="0 0 512 512" width="512" xmlns="http://www.w3.org/2000/svg"><g><path d="m240.066 512h199.702v-30l-219.702-20z" fill="#17324d"/><path d="m72.232 482v30h167.834v-50z" fill="#284866"/><path d="m240.066 482h199.702v-40l-219.702-20z" fill="#0a1f33"/><path d="m240.066 422-167.834 20v40h167.834z" fill="#17324d"/><path d="m439.768 266.622v-63.734l-31.868-31.867v-171.021h-167.834l-20 221 20 221h199.702v-111.643h-31.868v-63.735z" fill="#17324d"/><path d="m72.232 0h167.834v442h-167.834z" fill="#284866"/><path d="m102.232 47.801h30v208.199h-30z" fill="#fff5f5"/><path d="m102.232 286h30v30h-30z" fill="#cfdfe6"/><g fill="#29cc95"><path d="m270.066 47.801h30v30h-30z"/><path d="m330.066 47.801h30v30h-30z"/></g></g></svg>