<svg id="Capa_1" enable-background="new 0 0 512 512" height="512" viewBox="0 0 512 512" width="512" xmlns="http://www.w3.org/2000/svg"><g><path d="m439.768 0h-167.834l-20 256 20 256h167.834z" fill="#0a1f33"/><path d="m104.1 0v171.021l-31.868 31.867v63.734h31.868v63.735h-31.868v181.643h199.702v-512z" fill="#17324d"/><path d="m409.768 30h-45.945l-20 55.51 20 85.511h45.945z" fill="#f93"/><path d="m317.878 30-20 55.51 20 85.511h45.945v-141.021z" fill="#ffc34d"/><path d="m271.934 30-20 55.51 20 85.511h45.944v-141.021z" fill="#f93"/><path d="m225.989 30-20 55.51 20 85.511h45.945v-141.021z" fill="#ffc34d"/><path d="m180.044 30-20 55.51 20 85.511h45.945v-141.021z" fill="#ffe666"/><path d="m134.1 30h45.945v141.021h-45.945z" fill="#ffc34d"/></g></svg>