<svg id="Capa_1" enable-background="new 0 0 512 512" height="512" viewBox="0 0 512 512" width="512" xmlns="http://www.w3.org/2000/svg"><g><path d="m512 42.49h-48.734l-227.266 20 20 407.02h256z" fill="#0a1f33"/><path d="m48.734 42.49h-48.734v427.02h256v-407.02z" fill="#17324d"/><path d="m463.266 42.49h-30l-197.266 20 20 358.286h207.266z" fill="#cfdfe6"/><path d="m48.734 42.49v378.286h207.266v-358.286l-177.266-20z" fill="#fff5f5"/><path d="m256 42.49-20 82.688c.944.181 140.362 3.121 197.266-15.34v-67.348z" fill="#0a1f33"/><path d="m78.734 42.49v57.253c60.15-16.614 119.568 14.351 177.266 25.436v-82.689z" fill="#17324d"/><path d="m433.266 141.154v-31.316c-56.903 18.461-114.084 7.488-174.434-4.116-.943-.181-1.888-.363-2.832-.544l-20 50.549c36.415 6.997 93.505 13.947 131.042 13.946 21.939-.001 44.034-22.39 66.224-28.519z" fill="#ffc34d"/><path d="m78.734 99.742v31.324c56.902-18.461 176.322 24.479 177.266 24.66v-50.549c-57.697-11.084-117.115-22.049-177.266-5.435z" fill="#ffe666"/><path d="m433.266 317.199v-176.045c-22.19 6.129-44.284 8.518-66.223 8.519-37.538.001-74.628-6.95-111.042-13.946l-20 196.813c.943.18 140.362 3.12 197.265-15.341z" fill="#e62e6b"/><path d="m253.168 135.183c-60.35-11.604-117.532-22.578-174.434-4.116v176.037c60.15-16.614 119.569 14.35 177.266 25.435v-196.813c-.944-.181-1.889-.362-2.832-.543z" fill="#f66"/><path d="m433.266 348.515v-31.317c-56.903 18.461-114.083 7.488-174.433-4.116-.943-.181-1.888-.363-2.833-.544l-20 50.548c36.415 6.998 175.076-8.442 197.266-14.571z" fill="#ffc34d"/><path d="m78.734 307.103v31.324c56.902-18.462 176.322 24.478 177.266 24.659v-50.548c-57.697-11.084-117.115-22.049-177.266-5.435z" fill="#ffe666"/><path d="m433.266 390.776v-42.26c-22.19 6.129-44.284 8.519-66.223 8.519-37.538 0-74.628-6.95-111.043-13.947l-20 23.844 20 23.844z" fill="#f66"/><path d="m78.734 338.428v52.348h177.266v-47.689c-.944-.181-1.889-.362-2.832-.544-60.351-11.603-117.532-22.577-174.434-4.115z" fill="#f93"/><g fill="#cfdfe6"><path d="m287.867 251.623h112.598v30h-112.598z"/><path d="m349.734 187.888h50.73v30h-50.73z"/><path d="m319.734 217.888v-30h-63.734l-10 15 10 15z"/></g><path d="m111.535 187.888h144.465v30h-144.465z" fill="#fff5f5"/></g></svg>