<svg id="Capa_1" enable-background="new 0 0 512 512" height="512" viewBox="0 0 512 512" width="512" xmlns="http://www.w3.org/2000/svg"><g><path d="m120.667 60h-45.334l-20 75h65.334z" fill="#cfdfe6"/><path d="m30 60h45.333v75h-45.333z" fill="#fff5f5"/><path d="m75.333 120-20 80 95.334-20v-60z" fill="#17324d"/><path d="m75.333 120h-75.333v60l75.333 20z" fill="#284866"/><path d="m55.333 230 95.334-20v-30h-75.334z" fill="#a3c6cc"/><path d="m75.333 180h-75.333v30l75.333 20z" fill="#cfdfe6"/><path d="m75.333 452h75.334v-242h-75.334l-20 121z" fill="#cfdfe6"/><path d="m0 210h75.333v242h-75.333z" fill="#fff5f5"/><path d="m301.333 60h-45.333l-20 75h65.333z" fill="#cfdfe6"/><path d="m210.667 60h45.333v75h-45.333z" fill="#fff5f5"/><path d="m256 120-20 80 95.333-20v-60z" fill="#17324d"/><path d="m256 120h-75.333v60l75.333 20z" fill="#284866"/><path d="m236 230 95.333-20v-30h-75.333z" fill="#a3c6cc"/><path d="m256 180h-75.333v30l75.333 20z" fill="#cfdfe6"/><path d="m256 452h75.333v-242h-75.333l-20 121z" fill="#cfdfe6"/><path d="m180.667 210h75.333v242h-75.333z" fill="#fff5f5"/><path d="m482 60h-45.333l-20 75h65.333z" fill="#cfdfe6"/><path d="m391.333 60h45.333v75h-45.333z" fill="#fff5f5"/><path d="m436.667 120-20 80 95.333-20v-60z" fill="#17324d"/><path d="m436.667 120h-75.334v60l75.334 20z" fill="#284866"/><path d="m416.667 230 95.333-20v-30h-75.333z" fill="#a3c6cc"/><path d="m436.667 180h-75.334v30l75.334 20z" fill="#cfdfe6"/><path d="m436.667 452h75.333v-242h-75.333l-20 121z" fill="#cfdfe6"/><path d="m361.333 210h75.333v242h-75.333z" fill="#fff5f5"/></g></svg>