<svg id="Capa_1" enable-background="new 0 0 512 512" height="512" viewBox="0 0 512 512" width="512" xmlns="http://www.w3.org/2000/svg"><g><path d="m417.107 63.734-17.705-31.867h-47.8l-20 51.867z" fill="#a3c6cc"/><path d="m351.602 31.867h-47.801l-17.704 31.867 65.505 20z" fill="#cfdfe6"/><path d="m351.602 63.734-20 98.735 180.398-20v-78.735z" fill="#284866"/><path d="m159.336 63.734-20 98.735h212.266v-98.735z" fill="#406080"/><path d="m42.49 63.734-42.49 78.735 159.336 20v-98.735z" fill="#284866"/><path d="m351.602 448.266h160.398v-305.797h-160.398l-20 145.398z" fill="#0a1f33"/><path d="m159.336 142.469h-31.867l-20 152.898 20 152.899h224.133v-305.797z" fill="#17324d"/><path d="m0 142.469h127.469v337.664h-127.469z" fill="#0a1f33"/><path d="m47.801 176.203h31.867v30h-31.867z" fill="#f66"/><path d="m351.602 127.469-20 160.398 20 160.399c88.586 0 160.398-71.813 160.398-160.398s-71.813-160.399-160.398-160.399z" fill="#17324d"/><path d="m191.203 287.867c0 88.586 71.813 160.398 160.398 160.398v-320.796c-88.585 0-160.398 71.813-160.398 160.398z" fill="#284866"/><path d="m482 287.867c0-71.902-58.496-130.398-130.398-130.398l-20 130.398 20 130.399c71.902 0 130.398-58.497 130.398-130.399z" fill="#284866"/><path d="m351.602 157.469c-71.902 0-130.398 58.497-130.398 130.398s58.496 130.398 130.398 130.398z" fill="#406080"/><path d="m452 287.867c0-55.36-45.038-100.398-100.398-100.398l-20 100.398 20 100.399c55.36 0 100.398-45.039 100.398-100.399z" fill="#0a1f33"/><path d="m351.602 187.469c-55.36 0-100.398 45.039-100.398 100.398s45.038 100.398 100.398 100.398z" fill="#17324d"/><path d="m381.602 287.867c0-16.542-13.458-30-30-30l-20 30 20 30c16.542 0 30-13.458 30-30z" fill="#cfdfe6"/><path d="m351.602 257.867c-16.542 0-30 13.458-30 30s13.458 30 30 30z" fill="#fff5f5"/></g></svg>