<svg id="Capa_1" enable-background="new 0 0 512 512" height="512" viewBox="0 0 512 512" width="512" xmlns="http://www.w3.org/2000/svg"><g><path d="m512 151h-30l-10 15 10 15h30z" fill="#0a1f33"/><path d="m317 421h165v-240l-185-20z" fill="#0a1f33"/><path d="m0 181v240h317v-260z" fill="#17324d"/><path d="m317 91-20 80 185-20v-60z" fill="#0a1f33"/><path d="m317 91h-317v60l317 20z" fill="#17324d"/><path d="m60 211h30v30h-30z" fill="#4dff88"/><path d="m422 91h-30v75h-95l20 195h105z" fill="#17324d"/><path d="m212 166h105v195h-105z" fill="#284866"/><path d="m317 301c-24.813 0-45-20.187-45-45s20.187-45 45-45 45 20.187 45 45-20.187 45-45 45zm0-60c-8.271 0-15 6.729-15 15s6.729 15 15 15 15-6.729 15-15-6.729-15-15-15z"/><path d="m392 181-95-20 20 170h75z" fill="#0a1f33"/><path d="m242 181v150h75v-170z" fill="#17324d"/><path d="m317 181h165v-30h-165l-10 15z" fill="#284866"/><path d="m0 151h317v30h-317z" fill="#406080"/><path d="m317 211-20 45 20 45c24.813 0 45-20.187 45-45s-20.187-45-45-45z" fill="#a3c6cc"/><path d="m272 256c0 24.813 20.187 45 45 45v-90c-24.813 0-45 20.187-45 45z" fill="#cfdfe6"/><circle cx="317" cy="256" fill="#fff5f5" r="15"/></g></svg>