<svg id="Capa_1" enable-background="new 0 0 512 512" height="512" viewBox="0 0 512 512" width="512" xmlns="http://www.w3.org/2000/svg"><g><path d="m512 0h-192.266l-20 206.203 20 305.797h192.266z" fill="#8066ff"/><path d="m223.071 0-20 304.734 20 207.266h96.663v-512z" fill="#69f"/><path d="m53.112 0s-53.112 63.734-53.112 256 21.245 256 21.245 256h201.826v-512z" fill="#9cf"/><path d="m463.266 319.734c0-79.144-64.388-143.531-143.531-143.531l-20 143.531 20 143.531c79.143.001 143.531-64.387 143.531-143.531z" fill="#cfdfe6"/><path d="m319.734 176.203c-79.144 0-143.531 64.388-143.531 143.531s64.388 143.531 143.531 143.531z" fill="#fff5f5"/><path d="m433.266 319.734c0-62.602-50.93-113.531-113.531-113.531l-20 113.531 20 113.531c62.601.001 113.531-50.929 113.531-113.531z" fill="#69f"/><path d="m319.734 206.203c-62.602 0-113.531 50.93-113.531 113.531s50.93 113.531 113.531 113.531z" fill="#9cf"/><path d="m303.801 48.734h31.867v30h-31.867z" fill="#fff5f5"/><path d="m400.465 48.734h63.734v30h-63.734z" fill="#ffe666"/><path d="m303.801 112.469h31.867v30h-31.867z" fill="#fff5f5"/><path d="m144.336 172.469h30v30h-30z" fill="#f66"/><path d="m80.602 48.734h93.734v93.734h-93.734z" fill="#284866"/><path d="m259.734 304.734h60v30h-60z" fill="#8066ff"/><path d="m319.734 289.734-20 30 20 30c16.569 0 30-13.431 30-30s-13.431-30-30-30z" fill="#17324d"/><path d="m289.734 319.734c0 16.569 13.431 30 30 30v-60c-16.568 0-30 13.432-30 30z" fill="#284866"/><path d="m112.469 80.602h30v30h-30z" fill="#fff5f5"/></g></svg>