<svg id="Capa_1" enable-background="new 0 0 512 512" height="512" viewBox="0 0 512 512" width="512" xmlns="http://www.w3.org/2000/svg"><g><path d="m352.664 448.266-116.664-20 20 83.734h96.664z" fill="#17324d"/><path d="m159.336 448.266v63.734h96.664v-83.734z" fill="#284866"/><path d="m416.398 0h-48.734l-131.664 20v191.203l180.398-20z" fill="#17324d"/><path d="m144.336 0h-48.734v191.203l160.398 20v-191.203z" fill="#284866"/><path d="m416.398 191.203h-160.398l-20 128.531 20 128.532h36.664l15.371-10 14.629 10h61.867z" fill="#0a1f33"/><path d="m95.602 191.203 31.867 257.063h61.867l14.254-10 15.746 10h36.664v-257.063z" fill="#17324d"/><path d="m367.664 0h-30l-101.664 20 20 122.469h111.664z" fill="#cfdfe6"/><path d="" fill="#0a1f33"/><path d="m292.664 269.938v178.328h30v-208.328h-66.664l-10 16.062 10 13.938z" fill="#cfdfe6"/><path d="m189.336 448.266h30v-178.328h36.664v-30h-66.664z" fill="#fff5f5"/><path d="m174.336 0h-30v142.469h111.664v-122.469z" fill="#fff5f5"/><path d="m337.664 63.734v-63.734h-81.664l-20 83.734z" fill="#ffc34d"/><path d="m256 0h-81.664v63.734l81.664 20z" fill="#ffe666"/><path d="m337.664 63.734h-81.664l-20 24.368 20 24.367h81.664z" fill="#f93"/><path d="m174.336 63.734h81.664v48.734h-81.664z" fill="#ffc34d"/></g></svg>