<svg id="Capa_1" enable-background="new 0 0 512 512" height="512" viewBox="0 0 512 512" width="512" xmlns="http://www.w3.org/2000/svg"><g><path d="m351.602 191.203-115.602-20v103.735l115.602-20z" fill="#0a1f33"/><path d="m160.398 191.203v63.735l95.602 20v-103.735z" fill="#17324d"/><path d="m415.336 0h-159.336l-20 95.602 20 95.601h159.336z" fill="#17324d"/><path d="m96.664 0h159.336v191.203h-159.336z" fill="#284866"/><path d="m366.602 48.734h-110.602l-20 46.868 20 46.867h110.602z" fill="#a3c6cc"/><path d="m145.398 48.734h110.602v93.734h-110.602z" fill="#cfdfe6"/><path d="m351.602 512v-65.859l-115.602-20 20 85.859z" fill="#0a1f33"/><path d="m160.398 512h95.602v-85.859l-95.602 20z" fill="#17324d"/><path d="m383.469 254.938h-127.469l-20 78.734 20 112.469h127.469z" fill="#17324d"/><path d="m128.531 254.938h127.469v191.203h-127.469z" fill="#284866"/><path d="m335.668 333.672v-30h-79.668l-10 15 10 15z" fill="#ffc34d"/><path d="m176.332 303.672h79.668v30h-79.668z" fill="#ffe666"/><path d="m336.602 78.734h-80.602l-10 16.868 10 16.867h80.602z" fill="#cfdfe6"/><path d="m175.398 78.734h80.602v33.734h-80.602z" fill="#fff5f5"/></g></svg>