<svg id="Capa_1" enable-background="new 0 0 512 512" height="512" viewBox="0 0 512 512" width="512" xmlns="http://www.w3.org/2000/svg"><g><path d="m376.564 256v-63.734l-84.265-20v103.734z" fill="#0a1f33"/><path d="m248.033 256 64.266 20v-103.734l-64.266 20z" fill="#17324d"/><path d="m472.166 256h-159.867l-20 125.602 20 98.531h159.867z" fill="#17324d"/><path d="m182.431 256-20 112.066 20 112.067h129.868v-224.133z" fill="#284866"/><path d="m152.431 256-20 112.066 20 112.067h30v-224.133z" fill="#17324d"/><path d="m152.431 256h-112.597v33.734l56.299 20 56.298-20z" fill="#284866"/><path d="m39.834 289.734v30l56.299 20 56.298-20v-30z" fill="#0a1f33"/><path d="m39.834 319.734h112.597v160.398h-112.597z" fill="#284866"/><path d="m312.299 0-20 68.734 116.132-20v-48.734z" fill="#cfdfe6"/><path d="m312.299 0h-96.133v48.734l96.133 20z" fill="#fff5f5"/><path d="m292.299 98.734 116.132-20v-30h-96.132z" fill="#a3c6cc"/><path d="m216.166 48.734v30l96.133 20v-50z" fill="#cfdfe6"/><path d="m408.431 78.734h-96.132l-20 48.735 20 64.797h96.132z" fill="#17324d"/><path d="m216.166 78.734h96.133v113.531h-96.133z" fill="#284866"/><path d="m360.631 142.469v-30h-48.332l-10 15 10 15z" fill="#ffc34d"/><path d="m263.967 112.469h48.332v30h-48.332z" fill="#ffe666"/><path d="m312.299 311.203-20 100.398 20 100.398c55.36 0 100.398-45.039 100.398-100.398s-45.038-100.398-100.398-100.398z" fill="#a3c6cc"/><path d="m211.9 411.602c0 55.359 45.039 100.398 100.399 100.398v-200.797c-55.36 0-100.399 45.039-100.399 100.399z" fill="#cfdfe6"/><path d="m312.299 341.203-20 70.398 20 70.398c38.818 0 70.398-31.581 70.398-70.398s-31.58-70.398-70.398-70.398z" fill="#0a1f33"/><path d="m241.9 411.602c0 38.818 31.581 70.398 70.398 70.398v-140.797c-38.817 0-70.398 31.581-70.398 70.399z" fill="#17324d"/><path d="m312.299 381.602-20 30 20 30c16.569 0 30-13.431 30-30s-13.432-30-30-30z" fill="#17324d"/><path d="m282.299 411.602c0 16.569 13.431 30 30 30v-60c-16.569 0-30 13.431-30 30z" fill="#284866"/></g></svg>