<svg id="Capa_1" enable-background="new 0 0 512 512" height="512" viewBox="0 0 512 512" width="512" xmlns="http://www.w3.org/2000/svg"><g><path d="m397 0h-141l-20 80 161-20z" fill="#17324d"/><path d="m115 0v60l141 20v-80z" fill="#284866"/><path d="m427 60h-171l-20 106 20 346h171z" fill="#a3c6cc"/><path d="m85 60h171v452h-171z" fill="#cfdfe6"/><path d="m397 90h-141l-20 76 20 316h141z" fill="#cfdfe6"/><path d="m115 90h141v392h-141z" fill="#fff5f5"/><path d="m367 452v-272h-111l-20 136 20 136z" fill="#17324d"/><path d="m145 180h111v272h-111z" fill="#284866"/><g fill="#29cc95"><path d="m337 210h-81l-20 16 20 14.5h81z"/><path d="m337 270.5h-81l-20 16 20 14.5h81z"/><path d="m337 331h-81l-20 16 20 14.5h81z"/><path d="m337 391.5h-81l-20 16 20 14.5h81z"/></g><path d="m175 210h81v30.5h-81z" fill="#4dff88"/><path d="m175 270.5h81v30.5h-81z" fill="#4dff88"/><path d="m175 331h81v30.5h-81z" fill="#4dff88"/><path d="m175 391.5h81v30.5h-81z" fill="#4dff88"/></g></svg>