<svg id="Capa_1" enable-background="new 0 0 512 512" height="512" viewBox="0 0 512 512" width="512" xmlns="http://www.w3.org/2000/svg"><g><path d="m351.602 96.664h-64.266l-20 83.734 84.266-20z" fill="#0a1f33"/><path d="m223.071 96.664v63.734l64.265 20v-83.734z" fill="#17324d"/><path d="m383.469 160.398h-96.133l-20 83.735 116.133-20z" fill="#17324d"/><path d="m191.203 160.398v63.735l96.133 20v-83.735z" fill="#284866"/><path d="m512 224.133h-224.664l-20 171.203 195.93 20h48.734z" fill="#0a1f33"/><path d="m0 224.133v191.203h176.203l111.133-20v-171.203z" fill="#17324d"/><path d="m287.336 336.602-20 58.734 165.93 20h30v-78.734z" fill="#a3c6cc"/><path d="m176.203 336.602v78.734h30l81.133-20v-58.734z" fill="#cfdfe6"/><circle cx="95.602" cy="256" fill="#cfdfe6" r="46.867"/><circle cx="95.602" cy="256" fill="#fff5f5" r="16.867"/><path d="m47.801 336.602h31.867v30h-31.867z" fill="#4dff88"/><path d="m111.535 336.602h31.867v30h-31.867z" fill="#cfdfe6"/><path d="m433.266 366.602h-30l-10 24.898 10 23.836h30z" fill="#17324d"/><path d="m373.266 366.602-10 24.367 10 24.367h30v-48.734z" fill="#0a1f33"/><path d="m373.266 366.602h-85.93l-20 24.367 20 24.367h85.93z" fill="#17324d"/><path d="m206.203 366.602h81.133v48.734h-81.133z" fill="#284866"/></g></svg>