<svg id="Capa_1" enable-background="new 0 0 512 512" height="512" viewBox="0 0 512 512" width="512" xmlns="http://www.w3.org/2000/svg"><g><path d="m480.133 310.174c0-35.2-28.535-63.734-63.734-63.734-35.199 0-63.734 28.535-63.734 63.734v31.867l63.734 20 63.734-20z" fill="#0a1f33"/><path d="m352.664 342.042-20 63.734 20 63.734h127.469v-127.468z" fill="#17324d"/><path d="m400.465 390.776h31.867v30h-31.867z" fill="#a3c6cc"/><path d="m283.618 95.602v-95.602h-107.286l-20 115.602z" fill="#0a1f33"/><path d="m176.332 0h-107.286v95.602l107.286 20z" fill="#17324d"/><path d="m176.332 95.602-20 51.867 95.419-20 31.867-31.867z" fill="#17324d"/><path d="m176.332 95.602h-107.286l31.867 31.867 75.419 20z" fill="#284866"/><path d="m156.332 211.203 116.664-20-21.245-63.734h-75.419z" fill="#284866"/><path d="m100.913 127.469-21.245 63.734 96.664 20v-83.734z" fill="#406080"/><path d="m272.996 191.203h-48.332l-20 107.104 68.332-20z" fill="#17324d"/><path d="m176.332 191.203-20 107.104 68.332-20v-87.104z" fill="#0a1f33"/><path d="m128 191.203-20 107.104 68.332-20v-87.104z" fill="#17324d"/><path d="m79.668 191.203v87.104l48.332 20v-107.104z" fill="#284866"/><path d="m272.996 310.174v-31.867h-96.664l-20 51.867z" fill="#a3c6cc"/><path d="m79.668 310.174 96.664 20v-51.867h-96.664z" fill="#cfdfe6"/><path d="m156.332 362.042 116.664-20v-31.868h-96.664z" fill="#17324d"/><path d="m79.668 310.174v31.868l96.664 20v-51.868z" fill="#284866"/><path d="m240.42 342.042-41.244 84.979 20 84.979h59.131l21.245-42.49h53.112v-127.468z" fill="#0a1f33"/><path d="m240.42 342.042h-64.088l-20 104.979 62.844-20z" fill="#284866"/><path d="m219.176 512v-84.979h-62.844l20 84.979z" fill="#17324d"/><path d="m112.243 342.042 1.245 104.979 62.844-20v-84.979z" fill="#406080"/><path d="m133.488 512h42.844v-84.979h-62.844z" fill="#284866"/><path d="m112.243 342.042h-80.376v127.468l21.245 42.49h80.376v-84.979z" fill="#17324d"/><path d="m272.996 390.776h31.867v30h-31.867z" fill="#29cc95"/></g></svg>