<svg id="Capa_1" enable-background="new 0 0 512 512" height="512" viewBox="0 0 512 512" width="512" xmlns="http://www.w3.org/2000/svg"><g><path d="m60 256h30v60h-30z" fill="#a3c6cc"/><path d="m30 196h90v75h-90z" fill="#0a1f33"/><path d="m120 301h-90v60l45 20 45-20z" fill="#17324d"/><path d="m30 361v30l45 20 45-20v-30z" fill="#cfdfe6"/><path d="m30 391h90v121h-90z" fill="#17324d"/><g><path d="m512 211h-176l-15-181h191z" fill="#284866"/></g><path d="m366 181h116v-121h-116l-20 61z" fill="#0a1f33"/><path d="m366 181h-30l-20-121h50z" fill="#17324d"/><path d="m396 121h30v30h-30z" fill="#29cc95"/><path d="m336 0h-120l-20 107.5 20 103.5h120z" fill="#0a1f33"/><path d="m0 0v45.5l75 165.5h141v-211h-61l-15 10-15-10z" fill="#17324d"/><path d="m125 0h30v30h-30z" fill="#cfdfe6"/><path d="m216 45.5-20 60 20 60c33.084 0 60-26.916 60-60s-26.916-60-60-60z" fill="#cfdfe6"/><path d="m156 105.5c0 33.084 26.916 60 60 60v-120c-33.084 0-60 26.916-60 60z" fill="#fff5f5"/><path d="m216 75.5-20 30 20 30c16.542 0 30-13.458 30-30s-13.458-30-30-30z" fill="#17324d"/><g fill="#284866"><path d="m186 105.5c0 16.542 13.458 30 30 30v-60c-16.542 0-30 13.458-30 30z"/><path d="m0 45.5h75v165.5h-75z"/></g></g></svg>