<svg id="Capa_1" enable-background="new 0 0 512 512" height="512" viewBox="0 0 512 512" width="512" xmlns="http://www.w3.org/2000/svg"><g><path d="m120 85-45 20-45-20v-30h90z" fill="#cfdfe6"/><path d="m30 85h90v45h-90z" fill="#a3c6cc"/><path d="m512 115h-316l-20 192 20 150h316v-180l-20-51 20-51z" fill="#a3c6cc"/><path d="m0 115h196v342h-196z" fill="#cfdfe6"/><path d="m332 175h-136l-20 132 20 90h136z" fill="#cfdfe6"/><path d="m60 175h136v222h-136z" fill="#fff5f5"/><path d="m302 205h-106l-20 102 20 60h106z" fill="#17324d"/><path d="m90 205h106v162h-106z" fill="#284866"/><path d="m362 277h150v-30l-20-21 20-21v-30h-150z" fill="#cfdfe6"/><path d="m392 205h120v42h-120z" fill="#7da1b3"/><circle cx="407" cy="352" fill="#17324d" r="45"/><circle cx="407" cy="352" fill="#284866" r="15"/><path d="m120 235h30v30h-30z" fill="#f66"/><path d="m241 307h-45l-10 15 10 15h45z" fill="#29cc95"/><path d="m151 307h45v30h-45z" fill="#4dff88"/></g></svg>