<svg id="Capa_1" enable-background="new 0 0 512 512" height="512" viewBox="0 0 512 512" width="512" xmlns="http://www.w3.org/2000/svg"><g><path d="m482 60h-226l-20 352 246-20z" fill="#0a1f33"/><path d="m30 60v332l226 20v-352z" fill="#17324d"/><path d="m452 90h-196l-20 139.185 20 132.815h196z" fill="#cfdfe6"/><path d="m60 90h196v272h-196z" fill="#fff5f5"/><path d="m407 120h-151l-20 85.5 171 126.5z" fill="#69f"/><path d="m105 120v212l151-126.5v-85.5z" fill="#9cf"/><path d="m512 392h-226l-50 20 20 40h256z" fill="#a3c6cc"/><path d="m0 392v60h256v-40l-30-20z" fill="#cfdfe6"/><path d="m286 422v-30h-30l-10 15 10 15z" fill="#7da1b3"/><path d="m226 392h30v30h-30z" fill="#a3c6cc"/><path d="m331.931 259.168s-42.264-23.168-95.931-11.302l20 84.134h151z" fill="#8066ff"/><path d="m179.637 259.587-74.637 72.413h151v-84.133c-40 0-76.363 11.72-76.363 11.72z" fill="#69f"/><path d="m256 185.5-20 50.5 20 31.866c2.668-.952 5.303-2.032 7.89-3.256 14.269-6.751 30.121-9.446 45.82-7.788l22.222 2.346z" fill="#cfdfe6"/><path d="m179.637 259.587 10.83 5.097c20.667 9.727 44.235 10.781 65.533 3.182v-82.366z" fill="#fff5f5"/></g></svg>