<svg id="Capa_1" enable-background="new 0 0 512 512" height="512" viewBox="0 0 512 512" width="512" xmlns="http://www.w3.org/2000/svg"><g><path d="m241 345h30v167h-30z" fill="#284866"/><path d="m316 300-30-20v50h-30l-10 15 10 15h60z" fill="#0a1f33"/><path d="m196 330h60v30h-60z" fill="#17324d"/><path d="m316 300v-75h-80l20 75z" fill="#17324d"/><path d="m196 225h60v75h-60z" fill="#284866"/><path d="m421 30h-96.973l-20-30h-48.027l-20 125 20 115h165z" fill="#a3c6cc"/><path d="m207.973 0-20 30h-96.973v75l75 135h90v-240z" fill="#cfdfe6"/><path d="m256 65-20 60 20 60c33.084 0 60-26.916 60-60s-26.916-60-60-60z" fill="#cfdfe6"/><path d="m196 125c0 33.084 26.916 60 60 60v-120c-33.084 0-60 26.916-60 60z" fill="#fff5f5"/><path d="m91 105v30l45 105h30v-135z" fill="#a3c6cc"/><path d="m91 135h45v105h-45z" fill="#cfdfe6"/><path d="m256 95-20 30 20 30c16.542 0 30-13.458 30-30s-13.458-30-30-30z" fill="#17324d"/><path d="m226 125c0 16.542 13.458 30 30 30v-60c-16.542 0-30 13.458-30 30z" fill="#284866"/><path d="m256 390-10 14.667 10 15.333h45v92h30v-122z" fill="#0a1f33"/><path d="m181 390v122h30v-92h45v-30z" fill="#17324d"/></g></svg>