<svg id="Capa_1" enable-background="new 0 0 512 512" height="512" viewBox="0 0 512 512" width="512" xmlns="http://www.w3.org/2000/svg"><g><path d="m512 281h-195l15-221h180z" fill="#f66"/><path d="m317 90h165v161h-165z" fill="#e62e6b"/><path d="m362 120h30v40h-30z" fill="#f66"/><path d="m422 120h30v40h-30z" fill="#f66"/><path d="m242 0h-76l-20 75h96z" fill="#a3c6cc"/><path d="m90 0h76v75h-76z" fill="#cfdfe6"/><path d="m166 60-20 432 80 20h30l15-10 15 10h46v-452z" fill="#0a1f33"/><path d="m0 60v452h60l106-20v-432z" fill="#17324d"/><path d="m166 120-20 372 50 20h30v-392z" fill="#ffc34d"/><path d="m60 120v392h30l76-20v-372z" fill="#ffe666"/><path d="m256 150h30v362h-30z" fill="#cfdfe6"/><path d="m196 512v-362h-30l-20 173.5 20 188.5z" fill="#f93"/><path d="m90 150h76v362h-76z" fill="#ffc34d"/></g></svg>