<svg id="Capa_1" enable-background="new 0 0 512 512" height="512" viewBox="0 0 512 512" width="512" xmlns="http://www.w3.org/2000/svg"><g><path d="m136 420h90v30h-90z" fill="#17324d"/><path d="m121 390h30v90h-30z" fill="#406080"/><path d="m301 497h-45l-20-122h65z" fill="#17324d"/><path d="m211 375h45v122h-45z" fill="#284866"/><path d="m331 390h-75l-20-75h95z" fill="#284866"/><path d="m181 315h75v75h-75z" fill="#406080"/><path d="m331 512h-75l-10-15 10-15h75z" fill="#a3c6cc"/><path d="m181 482h75v30h-75z" fill="#cfdfe6"/><path d="m482 0h-226l-20 165 20 165h226z" fill="#a3c6cc"/><path d="m30 0h226v330h-226z" fill="#cfdfe6"/><path d="m452 30h-196l-20 135 20 135h196z" fill="#cfdfe6"/><path d="m60 30h196v270h-196z" fill="#fff5f5"/><path d="m91 60h30v30h-30z" fill="#cfdfe6"/><path d="m151 60h30v30h-30z" fill="#cfdfe6"/><path d="m211 60h30v30h-30z" fill="#cfdfe6"/><g fill="#a3c6cc"><path d="m271 60h30v30h-30z"/><path d="m331 60h30v30h-30z"/><path d="m391 60h30v30h-30z"/></g><path d="m91 120h30v30h-30z" fill="#cfdfe6"/><path d="m151 120h30v30h-30z" fill="#cfdfe6"/><path d="m211 120h30v30h-30z" fill="#cfdfe6"/><path d="m271 120h30v30h-30z" fill="#a3c6cc"/><path d="m331 120h30v30h-30z" fill="#a3c6cc"/><path d="m391 120h30v30h-30z" fill="#a3c6cc"/><path d="m91 180h30v30h-30z" fill="#cfdfe6"/><path d="m151 180h30v30h-30z" fill="#cfdfe6"/><path d="m211 180h30v30h-30z" fill="#cfdfe6"/><path d="m271 180h30v30h-30z" fill="#a3c6cc"/><path d="m331 180h30v30h-30z" fill="#a3c6cc"/><path d="m391 180h30v30h-30z" fill="#a3c6cc"/><path d="m91 240h30v30h-30z" fill="#cfdfe6"/><path d="m151 240h30v30h-30z" fill="#cfdfe6"/><path d="m211 240h30v30h-30z" fill="#cfdfe6"/><path d="m271 240h30v30h-30z" fill="#a3c6cc"/><path d="m331 240h30v30h-30z" fill="#a3c6cc"/><path d="m391 240h30v30h-30z" fill="#a3c6cc"/></g></svg>