<svg id="Capa_1" enable-background="new 0 0 512 512" height="512" viewBox="0 0 512 512" width="512" xmlns="http://www.w3.org/2000/svg"><g><path d="m512 240h-30v172l30-20z" fill="#0a1f33"/><path d="m30 240h-30v152l30 20z" fill="#17324d"/><path d="m367 120h45v30h-45z" fill="#284866"/><path d="m100 120h45v30h-45z" fill="#406080"/><path d="m382 323.755v-233.755h-126l-20 322.77 195.743-20c-29.753-9.917-49.743-37.653-49.743-69.015z" fill="#cfdfe6"/><path d="m130 90v233.755c0 31.362-19.99 59.098-49.743 69.015l175.743 20v-322.77z" fill="#fff5f5"/><path d="m256 392-10 12.723 10 17.277h256v-30z" fill="#a3c6cc"/><path d="m0 392h256v30h-256z" fill="#cfdfe6"/><path d="m0 240c0 33.084 26.916 60 60 60h40v-120h-40c-33.084 0-60 26.916-60 60z" fill="#284866"/><path d="m452 180h-40v120h40c33.084 0 60-26.916 60-60s-26.916-60-60-60z" fill="#17324d"/></g></svg>