<svg id="Capa_1" enable-background="new 0 0 512.033 512.033" height="512" viewBox="0 0 512.033 512.033" width="512" xmlns="http://www.w3.org/2000/svg"><g><path d="m512.033 107.293h-256.016l-20 83.739 276.016-20z" fill="#17324d"/><path d="m127.477 107.293-20 83.739 148.54-20v-63.739z" fill="#284866"/><path d="m0 107.293v63.739l127.477 20v-83.739z" fill="#0a1f33"/><path d="m512.033 171.032h-256.016l-20 120.919 276.016-20z" fill="#0a1f33"/><path d="m0 171.032v100.919l256.017 20v-120.919z" fill="#17324d"/><path d="m0 271.951v100.92h149.786l106.231-20v-80.92z" fill="#406080"/><path d="m256.017 271.951-20 80.92 195.409 20h80.607v-100.92z" fill="#284866"/><path d="m379.282 219.771h-123.265l-20 133.1 165.409 20h30v-100.957c0-28.752-23.392-52.143-52.144-52.143z" fill="#17324d"/><path d="m132.751 219.771c-28.752 0-52.144 23.392-52.144 52.144v100.957h30l145.409-20v-133.1h-123.265z" fill="#284866"/><path d="m401.426 271.914c0-12.21-9.934-22.144-22.144-22.144h-123.265l-20 103.1 126.231 20h39.178z" fill="#0a1f33"/><path d="m132.751 249.771c-12.21 0-22.144 9.934-22.144 22.144v100.957h39.178l106.231-20v-103.1h-123.265z" fill="#17324d"/><path d="m368.622 404.74-21.247-106.231h-91.358l-20 54.362 20 51.869z" fill="#cfdfe6"/><path d="m143.412 404.74h112.605v-106.231h-91.359z" fill="#fff5f5"/></g></svg>