<svg id="Capa_1" enable-background="new 0 0 512 512" height="512" viewBox="0 0 512 512" width="512" xmlns="http://www.w3.org/2000/svg"><g><path d="m416.398 131.461v-99.594h-120.564v31.867h-39.834l-20 87.727z" fill="#0a1f33"/><path d="m256 63.734h-39.834v-31.867h-120.564v99.594l160.398 20z" fill="#17324d"/><path d="m256 131.461-20 50 180.398-20v-30z" fill="#284866"/><path d="m95.602 131.461v30l160.398 20v-50z" fill="#406080"/><path d="m0 161.461v223.07h48.734l98.736-20-20-203.07z" fill="#284866"/><path d="m384.532 161.461-20 203.07 98.734 20h48.734v-223.07z" fill="#17324d"/><path d="m384.532 161.461h-128.532l-20 223.07h148.532z" fill="#0a1f33"/><path d="m127.47 161.461h128.53v223.071h-128.53z" fill="#17324d"/><path d="m256 273.93-20 90.601 197.266 20h30v-110.601z" fill="#284866"/><path d="m48.734 273.93v110.601h30l177.266-20v-90.601z" fill="#406080"/><path d="m433.266 303.93h-177.266l-20 80.601h197.266z" fill="#0a1f33"/><path d="m78.734 303.93h177.266v80.602h-177.266z" fill="#17324d"/><path d="m384.531 480.133v-127.469h-128.531l-20 63.734 20 63.735z" fill="#cfdfe6"/><path d="m127.469 352.664h128.531v127.469h-128.531z" fill="#fff5f5"/><path d="m287.867 210.195h-31.867l-10 15 10 15h31.867z" fill="#ffc34d"/><path d="m224.133 210.195h31.867v30h-31.867z" fill="#ffe666"/></g></svg>