<svg id="Capa_1" enable-background="new 0 0 512 512" height="512" viewBox="0 0 512 512" width="512" xmlns="http://www.w3.org/2000/svg"><g><path d="m512 128.531-83.734 90.412 20 164.526h63.734z" fill="#7da1b3"/><path d="m0 128.531v254.938h63.735l20-164.526z" fill="#a3c6cc"/><path d="m256 383.469h192.266v-63.735l-212.266-20z" fill="#a3c6cc"/><path d="m63.735 319.734v63.735h192.265v-83.735z" fill="#cfdfe6"/><path d="m373.909 319.734-137.909-20 20 147.469h149.776z" fill="#cfdfe6"/><path d="m138.091 319.734-31.867 127.469h149.776v-147.469z" fill="#fff5f5"/><path d="m236 236 20 83.734h192.266v-80.791z" fill="#284866"/><path d="m63.735 238.943v80.791h192.265v-83.734z" fill="#406080"/><path d="m256 64.797-20 95.602 20 95.601h128.531c70.399 0 127.469-57.07 127.469-127.469v-63.734z" fill="#cfdfe6"/><path d="m0 64.797v63.735c0 70.398 57.07 127.468 127.469 127.468h128.531v-191.203z" fill="#fff5f5"/><path d="m58.423 113.531h31.867v30h-31.867z" fill="#f66"/><path d="m389.842 113.531h63.734v30h-63.734z" fill="#a3c6cc"/><path d="m318.801 113.531h-62.801l-20 46.867 20 46.868h62.801z" fill="#7da1b3"/><path d="m193.199 113.531h62.801v93.734h-62.801z" fill="#a3c6cc"/><path d="m288.801 143.531h-32.801l-10 16.867 10 16.868h32.801z" fill="#ffc34d"/><path d="m223.199 143.531h32.801v33.734h-32.801z" fill="#ffe666"/></g></svg>