<svg id="Capa_1" enable-background="new 0 0 512 512" height="512" viewBox="0 0 512 512" width="512" xmlns="http://www.w3.org/2000/svg"><g><path d="m63.734 254.133h-20.888c-23.663 0-42.846 19.183-42.846 42.846v5.888l83.734 20z" fill="#ffe666"/><path d="m0 302.867v30l83.734 20-20-50z" fill="#284866"/><path d="m0 424.091h63.734l20-91.224h-83.734z" fill="#ffe666"/><path d="m512 296.979c0-23.663-19.183-42.846-42.846-42.846h-20.888l-20 68.734 83.734-20z" fill="#ffc34d"/><path d="m448.266 302.867-20 50 83.734-20v-30z" fill="#17324d"/><path d="m448.266 424.091h63.734v-91.224h-83.734z" fill="#ffc34d"/><path d="m160.27 71.042h30v68.591h-30z" fill="#ffe666"/><path d="m321.73 71.042h30v68.591h-30z" fill="#ffc34d"/><path d="m448.266 116.041h-192.266l-20 63.735 212.266-20z" fill="#f93"/><path d="m63.734 116.041v43.735l192.266 20v-63.735z" fill="#ffc34d"/><path d="m448.266 159.776h-192.266l-20 50 212.266-20z" fill="#17324d"/><path d="m63.734 159.776v30l192.266 20v-50z" fill="#284866"/><path d="m448.266 455.958v-266.182h-192.266l-20 246.182 148.531 20z" fill="#f93"/><path d="m63.734 455.958h63.735l128.531-20v-246.182h-192.266z" fill="#ffc34d"/><path d="m384.531 56.042h-128.531l-10 15 10 15h128.531z" fill="#f93"/><g fill="#ffc34d"><path d="m127.469 56.042h128.531v30h-128.531z"/><path d="m256 455.958h128.531v-148.713l-148.531-20z"/><path d="m384.531 277.245v-33.735h-128.531l-20 53.735z"/></g><path d="m127.469 307.245v148.713h128.531v-168.713z" fill="#ffe666"/><path d="m127.469 277.245 128.531 20v-53.735h-128.531z" fill="#ffe666"/><path d="m256 455.958c17.6 0 31.867-14.267 31.867-31.867v-16.868l-51.867-20z" fill="#f93"/><path d="m224.133 407.223v16.868c0 17.6 14.267 31.867 31.867 31.867v-68.735z" fill="#ffc34d"/><path d="m256 407.223h31.867v-30l-51.867-20z" fill="#17324d"/><path d="m256 357.223-31.867 20v30h31.867z" fill="#284866"/><path d="m287.867 377.223v-69.978l-51.867-20 20 89.978z" fill="#f93"/><path d="m224.133 377.223h31.867v-89.978l-31.867 20z" fill="#ffc34d"/><path d="m256 277.245-10 15 10 15h128.531v-30z" fill="#17324d"/><path d="m127.469 277.245h128.531v30h-128.531z" fill="#284866"/></g></svg>