<svg id="Capa_1" enable-background="new 0 0 512 512" height="512" viewBox="0 0 512 512" width="512" xmlns="http://www.w3.org/2000/svg"><g><path d="m256 0-10 15 10 15h45v45h30v-75z" fill="#284866"/><path d="m181 0v75h30v-45h45v-30z" fill="#406080"/><path d="m433.801 60h-177.801l-20 310.265 197.801-20s21.422-50.341 21.422-145.133c0-94.791-21.422-145.132-21.422-145.132z" fill="#0a1f33"/><path d="m256 60h-177.801s-21.422 50.341-21.422 145.133c0 94.791 21.422 145.133 21.422 145.133l177.801 20z" fill="#17324d"/><path d="m425.223 205.133c0-8.592-.193-16.866-.545-24.798-.224-5.05-10.511-9.961-10.854-14.728-.379-5.272 9.175-10.367 8.675-15.278-2.592-25.425-6.651-45.905-10.465-60.329h-51.034l-16.099 10-13.901-10h-75l-20 115.133 20 115.133h45l15.333-10 14.667 10h81.034c3.262-12.335 6.703-29.1 9.252-49.598.584-4.696-8.879-9.588-8.401-14.668.44-4.681 10.829-9.52 11.158-14.513.747-11.354 1.18-23.497 1.18-36.354z" fill="#a3c6cc"/><path d="m99.965 90c-3.814 14.425-7.873 34.906-10.465 60.333-.458 4.496 9.129 9.147 8.772 13.947-.385 5.181-10.706 10.535-10.951 16.054-.351 7.933-.545 16.207-.545 24.8 0 12.549.412 24.419 1.127 35.538.339 5.281 10.747 10.394 11.211 15.329.478 5.08-8.985 9.972-8.401 14.668 2.549 20.498 5.99 37.263 9.252 49.598h81.035l14-10 16 10h45v-230.267h-75l-13.9 10-16.1-10z" fill="#cfdfe6"/><path d="m331 180.334h93.674c-.471-10.632-1.225-20.65-2.178-30h-61.496v-60.334h-30v60.334h-30v90.333h-45v30h45v49.599h30v-49.599h90.283c1.152-9.26 2.121-19.28 2.81-30h-93.093z" fill="#cfdfe6"/><path d="m211 240.667v-90.334h-30v-60.333h-30v60.333h-61.496c-.953 9.35-1.707 19.368-2.178 30l93.674.001v60.333h-93.093c.689 10.72 1.659 20.74 2.81 30h90.283v49.599h30v-49.599h45v-30z" fill="#fff5f5"/><path d="m256 512h131.865c25.369 0 45.936-20.566 45.936-45.936v-115.799h-177.801l-20 80.867z" fill="#17324d"/><path d="m78.199 350.265v115.799c0 25.369 20.566 45.936 45.936 45.936h131.865v-161.735z" fill="#284866"/><path d="m387.865 482c8.787 0 15.936-7.148 15.936-15.936v-85.799h-147.801l-20 50.867 20 50.868z" fill="#a3c6cc"/><path d="m108.199 466.064c0 8.787 7.148 15.936 15.936 15.936h131.865v-101.734h-147.801z" fill="#cfdfe6"/></g></svg>