<svg id="Capa_1" enable-background="new 0 0 512.035 512.035" height="512" viewBox="0 0 512.035 512.035" width="512" xmlns="http://www.w3.org/2000/svg"><g><path d="m294.168 81.456h242.819v30h-242.819z" fill="#17324d" transform="matrix(.707 -.707 .707 .707 53.515 322.11)"/><path d="m379.227 210.59-38.891-38.891-70.652 42.367 53.033 53.032z" fill="#cfdfe6"/><path d="m252.678 153.008h79.916v55h-79.916z" fill="#fff5f5" transform="matrix(.707 -.707 .707 .707 -41.927 259.797)"/><path d="m329.524 325.617c5.053-32.794.319-62.862-13.357-87.325l-143.35 115.066-115.066 143.351c18.069 10.102 39.196 15.326 62.224 15.326 8.147 0 16.534-.653 25.104-1.974 42.914-6.613 85.662-29.368 120.368-64.075 34.708-34.706 57.464-77.454 64.077-120.369z" fill="#e62e6b"/><path d="m297.909 214.125-146.303 118.019-118.018 146.302c7.231 7.231 15.334 13.326 24.163 18.262l258.416-258.416c-4.936-8.83-11.027-16.936-18.258-24.167z" fill="#f66"/><path d="m297.909 214.125c-7.231-7.231-15.338-13.322-24.168-18.258l-143.348 115.064-115.064 143.348c4.936 8.83 11.027 16.936 18.259 24.167z" fill="#f93"/><path d="m186.417 182.51c-42.915 6.613-85.663 29.369-120.369 64.076-34.707 34.706-57.462 77.454-64.075 120.368-5.054 32.794-.32 62.862 13.357 87.325l258.412-258.412c-24.463-13.675-54.53-18.407-87.325-13.357z" fill="#f66"/></g></svg>