<svg id="Capa_1" enable-background="new 0 0 512.035 512.035" height="512" viewBox="0 0 512.035 512.035" width="512" xmlns="http://www.w3.org/2000/svg"><g><path d="m316.018 6.23-15 12.288-15-17.043c-9.279-.932-19.271-1.472-30-1.474l-20 221.839 89.05-20 53.116-169.97c0-.001-20.219-16.364-62.166-25.64z" fill="#f93"/><path d="m255.957 0c-10.707 0-20.679.536-29.939 1.462l-15 14.555-15-9.81c-41.98 9.272-62.166 25.662-62.166 25.662l53.116 169.97 69.05 20v-221.839c-.021 0-.041 0-.061 0z" fill="#ffc34d"/><path d="m236.018 251.84 89.05-20v-30h-69.05z" fill="#cfdfe6"/><path d="m256.018 201.84h-69.051v30l69.051 20z" fill="#fff5f5"/><path d="m236.018 349.317 89.05-20v-97.477h-69.05z" fill="#a3c6cc"/><path d="m256.018 231.84h-69.051v97.477l69.051 20z" fill="#cfdfe6"/><path d="m226.018 53.739v-52.277c-11.01 1.102-21.007 2.759-30 4.745v47.532z" fill="#ffe666"/><path d="m316.018 69.674v-63.444c-8.995-1.989-18.992-3.65-30-4.755v68.199z" fill="#ffc34d"/><path d="m236.018 379.317 89.05-20v-30h-69.05z" fill="#17324d"/><path d="m256.018 329.317h-69.051v30l69.051 20z" fill="#284866"/><path d="m256.018 512.035h69.05v-152.718h-69.05l-20 76.359z" fill="#284866"/><path d="m186.967 359.317h69.05v152.718h-69.05z" fill="#406080"/></g></svg>