<svg id="Capa_1" enable-background="new 0 0 512 512" height="512" viewBox="0 0 512 512" width="512" xmlns="http://www.w3.org/2000/svg"><g><path d="m316.5 512v-75h-80.5l20 75z" fill="#0a1f33"/><path d="m195.5 437h60.5v75h-60.5z" fill="#17324d"/><path d="m180.5 421h-75v-150h30v120h45z" fill="#0a1f33"/><path d="m256 452h90.5v-121l-110.5-20z" fill="#17324d"/><path d="m165.5 331v121h90.5v-141z" fill="#284866"/><path d="m346.5 331v-30l-110.5-20 20 50z" fill="#0a1f33"/><path d="m165.5 331h90.5v-50l-90.5 20z" fill="#17324d"/><path d="m346.5 226h-110.5l20 75h90.5z" fill="#17324d"/><path d="m286.5 391v-30h-30.5l-10 15 10 15z" fill="#cfdfe6"/><path d="m225.5 361h30.5v30h-30.5z" fill="#fff5f5"/><path d="m165.5 226h90.5v75h-90.5z" fill="#284866"/><path d="m376.5 241v-69.667l-140.5-20 20 89.667z" fill="#0a1f33"/><path d="m376.5 0h-120.5l-20 131.333 140.5-20z" fill="#0a1f33"/><g fill="#17324d"><path d="m135.5 0v111.333l120.5 20v-131.333z"/><path d="m135.5 241h120.5v-89.667l-120.5 20z"/><path d="m236 121.333 20 50h120.5v-30z"/></g><path d="m135.5 141.333v30h120.5v-50z" fill="#284866"/><path d="m406.5 141.333h-150.5l-10-15 10-15h150.5z" fill="#284866"/><path d="m105.5 111.333h150.5v30h-150.5z" fill="#406080"/></g></svg>