<svg id="Capa_1" enable-background="new 0 0 512 512" height="512" viewBox="0 0 512 512" width="512" xmlns="http://www.w3.org/2000/svg"><g><path d="m512 397.009v-353.275h-203.905c-23.202 0-43.209 13.932-52.095 33.873l-20 339.402z" fill="#cfdfe6"/><path d="m256 77.607c-8.886-19.941-28.893-33.873-52.094-33.873h-203.906v353.274l256 20z" fill="#fff5f5"/><path d="m48.734 93.079h158.531v110.199h-158.531z" fill="#cfdfe6"/><path d="m78.734 123.079h98.531v50.199h-98.531z" fill="#fff5f5"/><path d="m48.734 237.013h158.531v111.262h-158.531z" fill="#cfdfe6"/><path d="m78.734 267.013h98.531v51.262h-98.531z" fill="#fff5f5"/><path d="m304.734 93.079h158.531v110.199h-158.531z" fill="#a3c6cc"/><path d="m334.734 123.079h98.531v50.199h-98.531z" fill="#cfdfe6"/><path d="m304.734 237.013h158.531v111.262h-158.531z" fill="#a3c6cc"/><path d="m334.734 267.013h98.531v51.262h-98.531z" fill="#cfdfe6"/><path d="m256 397.009-20 37.272 20 33.985h55.24l20.838-31.257h179.922v-40z" fill="#8066ff"/><path d="m0 397.009v40h179.922l20.838 31.257h55.24v-71.257z" fill="#69f"/></g></svg>